<svg width="480" height="480" viewBox="0 0 480 480" fill="none" xmlns="http://www.w3.org/2000/svg">
<path d="M83.4375 172.833C83.4375 85.1448 154.523 13.125 242.212 13.125V13.125V172.833H83.4375V172.833Z" fill="#202124"/>
<path d="M83.4375 172.833H242.212V331.608V331.608C154.523 331.608 83.4375 260.522 83.4375 172.833V172.833Z" fill="#202124"/>
<path d="M242.212 13.125V13.125C330.416 13.125 401.92 84.6289 401.92 172.833V172.833H242.212V13.125Z" fill="#202124"/>
<path d="M242.212 172.833H401.92V172.833C401.92 260.522 329.9 331.608 242.212 331.608V331.608V172.833Z" fill="#202124"/>
<path d="M83.4375 172.5H266.25V375.469C266.25 425.951 225.326 466.875 174.844 466.875V466.875C124.361 466.875 83.4375 425.951 83.4375 375.469V172.5Z" fill="#202124"/>
<path d="M106.875 172.767C106.875 97.4687 167.917 35.625 243.215 35.625V35.625V172.767H106.875V172.767Z" fill="white"/>
<path d="M106.875 172.767H243.215V309.108H106.875V172.767Z" fill="white"/>
<path d="M106.875 309.108H243.215V378.08C243.215 415.729 212.695 446.25 175.045 446.25V446.25C137.396 446.25 106.875 415.729 106.875 378.08V309.108Z" fill="white"/>
<path d="M243.215 35.625V35.625C318.957 35.625 380.358 97.0257 380.358 172.767V172.767H243.215V35.625Z" fill="white"/>
<path d="M243.215 172.767H380.358V172.767C380.358 248.066 318.514 309.108 243.215 309.108V309.108V172.767Z" fill="white"/>
<path d="M161.25 135.937C161.25 113.674 179.299 95.625 201.562 95.625H242.813V135.937H161.25V135.937Z" fill="#202124"/>
<path d="M242.707 95.8923V95.8923C287.811 95.8923 324.375 132.456 324.375 177.56V177.56H242.707V95.8923Z" fill="#202124"/>
<path d="M242.707 177.56H324.375V177.56C324.375 222.4 287.547 258.75 242.707 258.75V258.75V177.56Z" fill="#202124"/>
<path d="M146.25 213.835C146.25 197.832 159.224 184.688 175.227 184.688V184.688V213.835H146.25V213.835Z" fill="#202124"/>
<path d="M146.25 378.835H175.227V407.813V407.813C159.224 407.813 146.25 394.839 146.25 378.835V378.835Z" fill="#202124"/>
<path d="M175.227 184.688V184.688C191.325 184.688 204.375 197.737 204.375 213.835V213.835H175.227V184.688Z" fill="#202124"/>
<path d="M175.227 378.835H204.375V378.835C204.375 394.839 191.231 407.813 175.227 407.813V407.813V378.835Z" fill="#202124"/>
<rect x="146.25" y="213.75" width="58.125" height="165.938" fill="#202124"/>
<path d="M161.513 135.938H243.076V147.188H172.763C166.55 147.188 161.513 142.151 161.513 135.938V135.938Z" fill="#202124"/>
<path d="M242.812 147.188L242.812 258.75V258.75C236.599 258.75 231.563 253.713 231.563 247.5L231.563 147.187L242.812 147.188Z" fill="#202124"/>
<rect x="231.562" y="147.188" width="11.25" height="11.25" transform="rotate(90 231.562 147.188)" fill="#202124"/>
<path d="M220.312 147.187C226.526 147.187 231.562 152.224 231.562 158.437V158.437L220.312 158.437L220.312 147.187V147.187Z" fill="white"/>
</svg>
